<?xml version="1.0" encoding="UTF-8" standalone="no"?>
<!-- Created with Inkscape (http://www.inkscape.org/) -->
<svg
   xmlns:dc="http://purl.org/dc/elements/1.1/"
   xmlns:cc="http://creativecommons.org/ns#"
   xmlns:rdf="http://www.w3.org/1999/02/22-rdf-syntax-ns#"
   xmlns:svg="http://www.w3.org/2000/svg"
   xmlns="http://www.w3.org/2000/svg"
   xmlns:sodipodi="http://sodipodi.sourceforge.net/DTD/sodipodi-0.dtd"
   xmlns:inkscape="http://www.inkscape.org/namespaces/inkscape"
   width="72.519127"
   height="55.230377"
   id="svg2767"
   sodipodi:version="0.32"
   inkscape:version="0.46"
   version="1.0"
   sodipodi:docname="Leaf icon 03.svg"
   inkscape:output_extension="org.inkscape.output.svg.inkscape">
  <defs
     id="defs2769">
    <inkscape:perspective
       sodipodi:type="inkscape:persp3d"
       inkscape:vp_x="0 : 526.18109 : 1"
       inkscape:vp_y="0 : 1000 : 0"
       inkscape:vp_z="744.09448 : 526.18109 : 1"
       inkscape:persp3d-origin="372.04724 : 350.78739 : 1"
       id="perspective2775" />
  </defs>
  <sodipodi:namedview
     id="base"
     pagecolor="#ffffff"
     bordercolor="#666666"
     borderopacity="1.0"
     gridtolerance="10000"
     guidetolerance="10"
     objecttolerance="10"
     inkscape:pageopacity="0.0"
     inkscape:pageshadow="2"
     inkscape:zoom="0.35"
     inkscape:cx="375"
     inkscape:cy="520"
     inkscape:document-units="px"
     inkscape:current-layer="layer1"
     showgrid="false"
     inkscape:window-width="640"
     inkscape:window-height="718"
     inkscape:window-x="632"
     inkscape:window-y="249" />
  <metadata
     id="metadata2772">
    <rdf:RDF>
      <cc:Work
         rdf:about="">
        <dc:format>image/svg+xml</dc:format>
        <dc:type
           rdf:resource="http://purl.org/dc/dcmitype/StillImage" />
      </cc:Work>
    </rdf:RDF>
  </metadata>
  <g
     inkscape:label="Layer 1"
     inkscape:groupmode="layer"
     id="layer1"
     transform="translate(-338.74044,-504.74699)">
    <g
       transform="matrix(1.2500001,0,0,1.2500001,370.78669,504.74699)"
       style="fill:#ffcc33;fill-rule:nonzero;stroke:none;stroke-width:0.642259;stroke-linecap:butt;stroke-linejoin:miter;stroke-dasharray:none"
       id="g40">
      <path
         d="M 32.3783,0 C 32.3783,0 30.8275,2.98587 26.9241,4.29965 C 23.02,5.61336 14.8629,4.71728 7.55738,9.1964 C 0.250663,13.6748 0,21.7363 0.45096,24.4239 C 0.901919,27.1107 3.45365,27.6485 3.45365,27.6485 C 3.45365,27.6485 2.50253,32.187 8.35798,32.6047 C 29.125,30.3962 32.3783,0 32.3783,0 z"
         id="path42" />
    </g>
    <g
       transform="matrix(1.2500001,0,0,1.2500001,367.71044,523.20974)"
       style="fill:#907d1b;fill-rule:nonzero;stroke:none;stroke-width:0.642259;stroke-linecap:butt;stroke-linejoin:miter;stroke-dasharray:none"
       id="g44">
      <path
         d="M 20.7143,0 C 20.7143,0 11.3343,6.86228 6.59631,13.7246 C 1.85772,20.5869 2.02112,29.4141 2.02112,29.4141 C 2.02112,29.4141 0,18.9135 4.38954,12.561 C 8.77907,6.20711 20.7143,0 20.7143,0 z"
         id="path46" />
    </g>
    <g
       transform="matrix(1.2500001,0,0,1.2500001,338.74044,521.58886)"
       style="fill:#ffc703;fill-rule:nonzero;stroke:none;stroke-width:0.642259;stroke-linecap:butt;stroke-linejoin:miter;stroke-dasharray:none"
       id="g48">
      <path
         d="M 0,0 C 0,0 1.05771,2.03381 3.71485,2.92849 C 6.37259,3.82254 11.9282,3.21243 16.904,6.26246 C 21.8792,9.3131 22.0496,14.8023 21.7433,16.632 C 21.4358,18.4631 19.6976,18.8289 19.6976,18.8289 C 19.6976,18.8289 20.3453,21.9185 16.3581,22.2037 C 2.21614,20.6989 0,0 0,0 z"
         id="path50" />
    </g>
    <g
       transform="matrix(1.2500001,0,0,1.2500001,352.49169,535.60862)"
       style="fill:#786c1e;fill-rule:nonzero;stroke:none;stroke-width:0.642259;stroke-linecap:butt;stroke-linejoin:miter;stroke-dasharray:none"
       id="g52">
      <path
         d="M 0,0 C 0,0 4.89203,3.47178 8.22679,8.03552 C 11.561,12.5993 11.5903,18.8398 11.5903,18.8398 C 11.5903,18.8398 12.7991,11.4186 9.7091,7.192 C 6.62091,2.96811 0,0 0,0 z"
         id="path54" />
    </g>
  </g>
</svg>
